<?xml version="1.0" standalone="yes"?>

<svg version="1.1" viewBox="0.0 0.0 960.0 540.0" fill="none" stroke="none" stroke-linecap="square" stroke-miterlimit="10" xmlns="http://www.w3.org/2000/svg" xmlns:xlink="http://www.w3.org/1999/xlink"><clipPath id="p.0"><path d="m0 0l960.0 0l0 540.0l-960.0 0l0 -540.0z" clip-rule="nonzero"></path></clipPath><g clip-path="url(#p.0)"><path fill="#6bcff6" d="m0 0l960.0 0l0 540.0l-960.0 0z" fill-rule="evenodd"></path><path fill="#ffffff" d="m474.46158 305.3221l0 0c0 -3.0624084 2.4830627 -5.544983 5.5460815 -5.544983l0 0c1.4709167 0 2.8815918 0.584198 3.9216614 1.6240845c1.0401001 1.0398865 1.6244202 2.4502869 1.6244202 3.9208984l0 0c0 3.0624084 -2.4830627 5.5450134 -5.5460815 5.5450134l0 0c-3.0630188 0 -5.5460815 -2.482605 -5.5460815 -5.5450134z" fill-rule="evenodd"></path><path fill="#ffffff" d="m492.201 305.3221l0 0c0 -3.0624084 2.4830627 -5.544983 5.5460815 -5.544983l0 0c1.4709167 0 2.8815918 0.584198 3.921692 1.6240845c1.0400696 1.0398865 1.6243896 2.4502869 1.6243896 3.9208984l0 0c0 3.0624084 -2.4830627 5.5450134 -5.5460815 5.5450134l0 0c-3.0630188 0 -5.5460815 -2.482605 -5.5460815 -5.5450134z" fill-rule="evenodd"></path><path fill="#ffffff" d="m456.72217 305.3221l0 0c0 -3.0624084 2.4830627 -5.544983 5.5460815 -5.544983l0 0c1.4709167 0 2.8815918 0.584198 3.9216614 1.6240845c1.0401001 1.0398865 1.6244202 2.4502869 1.6244202 3.9208984l0 0c0 3.0624084 -2.4830627 5.5450134 -5.5460815 5.5450134l0 0c-3.0630188 0 -5.5460815 -2.482605 -5.5460815 -5.5450134z" fill-rule="evenodd"></path><path fill="#000000" fill-opacity="0.0" d="m70.47324 104.020996l819.0551 0l0 181.63779l-819.0551 0z" fill-rule="evenodd"></path><path fill="#ffffff" d="m355.2508 261.0988l6.53125 -45.96875l0.75 0l18.6875 37.71875l18.5 -37.71875l0.75 0l6.59375 45.96875l-4.53125 0l-4.5 -32.875l-16.25 32.875l-1.15625 0l-16.46875 -33.125l-4.46875 33.125l-4.4375 0zm94.0625 -34.0l0 34.0l-4.3125 0l0 -5.84375q-2.75 3.34375 -6.171875 5.03125q-3.421875 1.6875 -7.484375 1.6875q-7.21875 0 -12.328125 -5.234375q-5.109375 -5.234375 -5.109375 -12.734375q0 -7.34375 5.15625 -12.5625q5.15625 -5.21875 12.40625 -5.21875q4.1875 0 7.578125 1.78125q3.390625 1.78125 5.953125 5.34375l0 -6.25l4.3125 0zm-17.5 3.34375q-3.65625 0 -6.75 1.796875q-3.09375 1.796875 -4.921875 5.046875q-1.828125 3.25 -1.828125 6.875q0 3.59375 1.84375 6.875q1.84375 3.28125 4.953125 5.109375q3.109375 1.828125 6.671875 1.828125q3.59375 0 6.8125 -1.8125q3.21875 -1.8125 4.953125 -4.90625q1.734375 -3.09375 1.734375 -6.96875q0 -5.90625 -3.890625 -9.875q-3.890625 -3.96875 -9.578125 -3.96875zm26.78125 -3.34375l4.40625 0l0 15.875q0 5.8125 0.625 8.0q0.9375 3.125 3.578125 4.9375q2.640625 1.8125 6.296875 1.8125q3.65625 0 6.203125 -1.765625q2.546875 -1.765625 3.515625 -4.640625q0.65625 -1.96875 0.65625 -8.34375l0 -15.875l4.46875 0l0 16.6875q0 7.03125 -1.640625 10.59375q-1.640625 3.5625 -4.9375 5.578125q-3.296875 2.015625 -8.265625 2.015625q-4.96875 0 -8.296875 -2.015625q-3.328125 -2.015625 -4.96875 -5.625q-1.640625 -3.609375 -1.640625 -10.859375l0 -16.375zm37.8125 0l4.46875 0l0 4.96875q2.0 -2.9375 4.21875 -4.390625q2.21875 -1.453125 4.625 -1.453125q1.8125 0 3.875 1.15625l-2.28125 3.6875q-1.375 -0.59375 -2.3125 -0.59375q-2.1875 0 -4.21875 1.796875q-2.03125 1.796875 -3.09375 5.578125q-0.8125 2.90625 -0.8125 11.75l0 11.5l-4.46875 0l0 -34.0zm22.4375 -14.0q1.5 0 2.5625 1.0625q1.0625 1.0625 1.0625 2.5625q0 1.46875 -1.0625 2.53125q-1.0625 1.0625 -2.5625 1.0625q-1.46875 0 -2.53125 -1.0625q-1.0625 -1.0625 -1.0625 -2.53125q0 -1.5 1.0625 -2.5625q1.0625 -1.0625 2.53125 -1.0625zm-2.1875 14.0l4.40625 0l0 34.0l-4.40625 0l0 -34.0zm46.46875 7.0625l-3.46875 2.15625q-4.5 -5.96875 -12.28125 -5.96875q-6.21875 0 -10.328125 4.0q-4.109375 4.0 -4.109375 9.71875q0 3.71875 1.890625 7.0q1.890625 3.28125 5.1875 5.09375q3.296875 1.8125 7.390625 1.8125q7.5 0 12.25 -5.96875l3.46875 2.28125q-2.4375 3.65625 -6.546875 5.671875q-4.109375 2.015625 -9.359375 2.015625q-8.0625 0 -13.375 -5.125q-5.3125 -5.125 -5.3125 -12.46875q0 -4.9375 2.484375 -9.171875q2.484375 -4.234375 6.828125 -6.609375q4.34375 -2.375 9.71875 -2.375q3.375 0 6.515625 1.03125q3.140625 1.03125 5.328125 2.6875q2.1875 1.65625 3.71875 4.21875zm37.03131 15.65625l3.6875 1.9375q-1.8125 3.5625 -4.1875 5.75q-2.375 2.1875 -5.34375 3.328125q-2.96875 1.140625 -6.71875 1.140625q-8.312561 0 -13.000061 -5.453125q-4.6875 -5.453125 -4.6875 -12.328125q0 -6.46875 3.96875 -11.53125q5.03125 -6.4375 13.468811 -6.4375q8.6875 0 13.875 6.59375q3.6875 4.65625 3.75 11.625l-30.562561 0q0.125 5.9375 3.78125 9.734375q3.65625 3.796875 9.031311 3.796875q2.59375 0 5.046875 -0.90625q2.453125 -0.90625 4.171875 -2.40625q1.71875 -1.5 3.71875 -4.84375zm0 -9.15625q-0.875 -3.5 -2.546875 -5.59375q-1.671875 -2.09375 -4.421875 -3.375q-2.75 -1.28125 -5.78125 -1.28125q-5.000061 0 -8.593811 3.21875q-2.625 2.34375 -3.96875 7.03125l25.312561 0z" fill-rule="nonzero"></path><path fill="#000000" fill-opacity="0.0" d="m70.47244 333.32028l819.0552 0l0 83.212616l-819.0552 0z" fill-rule="evenodd"></path><path fill="#ffffff" d="m301.44336 349.0909l2.328125 0l5.140625 8.28125l5.0625 -8.28125l2.3125 0l-6.359375 10.5l0 9.609375l-1.984375 0l0 -9.609375l-6.5 -10.5zm24.882812 4.84375q3.4375 0 5.6875 2.5q2.046875 2.265625 2.046875 5.375q0 3.109375 -2.171875 5.453125q-2.15625 2.328125 -5.5625 2.328125q-3.421875 0 -5.59375 -2.328125q-2.15625 -2.34375 -2.15625 -5.453125q0 -3.09375 2.046875 -5.359375q2.265625 -2.515625 5.703125 -2.515625zm0 1.875q-2.375 0 -4.09375 1.765625q-1.703125 1.765625 -1.703125 4.265625q0 1.609375 0.78125 3.015625q0.78125 1.390625 2.109375 2.15625q1.328125 0.75 2.90625 0.75q1.59375 0 2.90625 -0.75q1.328125 -0.765625 2.109375 -2.15625q0.78125 -1.40625 0.78125 -3.015625q0 -2.5 -1.71875 -4.265625q-1.703125 -1.765625 -4.078125 -1.765625zm11.052734 -1.484375l1.921875 0l0 6.9375q0 2.546875 0.28125 3.5q0.40625 1.375 1.5625 2.171875q1.15625 0.78125 2.75 0.78125q1.609375 0 2.71875 -0.765625q1.109375 -0.765625 1.53125 -2.03125q0.296875 -0.859375 0.296875 -3.65625l0 -6.9375l1.953125 0l0 7.296875q0 3.078125 -0.71875 4.640625q-0.71875 1.5625 -2.171875 2.453125q-1.4375 0.875 -3.609375 0.875q-2.171875 0 -3.625 -0.875q-1.453125 -0.890625 -2.171875 -2.46875q-0.71875 -1.59375 -0.71875 -4.765625l0 -7.15625zm16.53711 0l1.953125 0l0 2.171875q0.875 -1.28125 1.84375 -1.921875q0.984375 -0.640625 2.03125 -0.640625q0.796875 0 1.6875 0.515625l-0.984375 1.609375q-0.609375 -0.265625 -1.015625 -0.265625q-0.953125 0 -1.84375 0.796875q-0.890625 0.78125 -1.359375 2.4375q-0.359375 1.265625 -0.359375 5.140625l0 5.03125l-1.953125 0l0 -14.875zm16.298828 14.875l2.859375 -20.109375l0.328125 0l8.171875 16.5l8.09375 -16.5l0.328125 0l2.890625 20.109375l-1.984375 0l-1.96875 -14.390625l-7.109375 14.390625l-0.5 0l-7.21875 -14.5l-1.953125 14.5l-1.9375 0zm38.85547 -4.9375l1.609375 0.84375q-0.78125 1.5625 -1.828125 2.53125q-1.03125 0.953125 -2.34375 1.453125q-1.296875 0.5 -2.9375 0.5q-3.625 0 -5.6875 -2.390625q-2.046875 -2.390625 -2.046875 -5.390625q0 -2.84375 1.734375 -5.046875q2.203125 -2.828125 5.890625 -2.828125q3.8125 0 6.078125 2.890625q1.609375 2.03125 1.640625 5.09375l-13.375 0q0.0625 2.59375 1.65625 4.25q1.59375 1.65625 3.953125 1.65625q1.125 0 2.203125 -0.390625q1.078125 -0.390625 1.828125 -1.046875q0.75 -0.65625 1.625 -2.125zm0 -4.0q-0.375 -1.53125 -1.109375 -2.453125q-0.734375 -0.921875 -1.9375 -1.46875q-1.203125 -0.5625 -2.53125 -0.5625q-2.1875 0 -3.765625 1.40625q-1.140625 1.015625 -1.734375 3.078125l11.078125 0zm20.52539 -11.6875l0 20.625l-1.890625 0l0 -2.5625q-1.203125 1.46875 -2.703125 2.21875q-1.5 0.734375 -3.265625 0.734375q-3.15625 0 -5.40625 -2.296875q-2.234375 -2.296875 -2.234375 -5.578125q0 -3.203125 2.25 -5.484375q2.265625 -2.296875 5.4375 -2.296875q1.828125 0 3.3125 0.78125q1.484375 0.78125 2.609375 2.34375l0 -8.484375l1.890625 0zm-7.65625 7.21875q-1.609375 0 -2.96875 0.78125q-1.34375 0.78125 -2.140625 2.203125q-0.796875 1.421875 -0.796875 3.015625q0 1.5625 0.796875 3.0q0.8125 1.4375 2.171875 2.234375q1.359375 0.796875 2.921875 0.796875q1.578125 0 2.984375 -0.78125q1.40625 -0.796875 2.15625 -2.140625q0.765625 -1.359375 0.765625 -3.0625q0 -2.578125 -1.703125 -4.3125q-1.703125 -1.734375 -4.1875 -1.734375zm12.650391 -7.59375q0.65625 0 1.125 0.46875q0.46875 0.453125 0.46875 1.109375q0 0.65625 -0.46875 1.125q-0.46875 0.453125 -1.125 0.453125q-0.640625 0 -1.109375 -0.453125q-0.453125 -0.46875 -0.453125 -1.125q0 -0.65625 0.453125 -1.109375q0.46875 -0.46875 1.109375 -0.46875zm-0.953125 6.125l1.9375 0l0 14.875l-1.9375 0l0 -14.875zm20.339844 3.09375l-1.53125 0.9375q-1.96875 -2.609375 -5.359375 -2.609375q-2.734375 0 -4.53125 1.75q-1.796875 1.75 -1.796875 4.25q0 1.625 0.828125 3.0625q0.828125 1.4375 2.265625 2.234375q1.453125 0.78125 3.234375 0.78125q3.28125 0 5.359375 -2.609375l1.53125 1.0q-1.078125 1.609375 -2.875 2.5q-1.796875 0.875 -4.09375 0.875q-3.53125 0 -5.859375 -2.25q-2.3125 -2.25 -2.3125 -5.453125q0 -2.15625 1.078125 -4.015625q1.09375 -1.859375 2.984375 -2.890625q1.90625 -1.046875 4.265625 -1.046875q1.46875 0 2.84375 0.453125q1.375 0.453125 2.328125 1.1875q0.96875 0.71875 1.640625 1.84375zm18.490234 -3.09375l0 14.875l-1.890625 0l0 -2.5625q-1.203125 1.46875 -2.703125 2.21875q-1.484375 0.734375 -3.265625 0.734375q-3.15625 0 -5.390625 -2.296875q-2.234375 -2.296875 -2.234375 -5.578125q0 -3.203125 2.25 -5.484375q2.25 -2.296875 5.421875 -2.296875q1.84375 0 3.328125 0.78125q1.484375 0.78125 2.59375 2.34375l0 -2.734375l1.890625 0zm-7.65625 1.46875q-1.59375 0 -2.953125 0.78125q-1.359375 0.78125 -2.15625 2.203125q-0.796875 1.421875 -0.796875 3.015625q0 1.5625 0.796875 3.0q0.8125 1.4375 2.171875 2.234375q1.359375 0.796875 2.921875 0.796875q1.578125 0 2.984375 -0.78125q1.40625 -0.796875 2.15625 -2.140625q0.765625 -1.359375 0.765625 -3.0625q0 -2.578125 -1.703125 -4.3125q-1.703125 -1.734375 -4.1875 -1.734375zm13.626953 -7.0l1.9375 0l0 5.53125l3.03125 0l0 1.640625l-3.03125 0l0 13.234375l-1.9375 0l0 -13.234375l-2.609375 0l0 -1.640625l2.609375 0l0 -5.53125zm8.488281 -0.59375q0.65625 0 1.125 0.46875q0.46875 0.453125 0.46875 1.109375q0 0.65625 -0.46875 1.125q-0.46875 0.453125 -1.125 0.453125q-0.640625 0 -1.109375 -0.453125q-0.453125 -0.46875 -0.453125 -1.125q0 -0.65625 0.453125 -1.109375q0.46875 -0.46875 1.109375 -0.46875zm-0.953125 6.125l1.9375 0l0 14.875l-1.9375 0l0 -14.875zm12.933594 -0.390625q3.4375 0 5.6875 2.5q2.046875 2.265625 2.046875 5.375q0 3.109375 -2.171875 5.453125q-2.15625 2.328125 -5.5625 2.328125q-3.421875 0 -5.59375 -2.328125q-2.15625 -2.34375 -2.15625 -5.453125q0 -3.09375 2.046875 -5.359375q2.265625 -2.515625 5.703125 -2.515625zm0 1.875q-2.375 0 -4.09375 1.765625q-1.703125 1.765625 -1.703125 4.265625q0 1.609375 0.78125 3.015625q0.78125 1.390625 2.109375 2.15625q1.328125 0.75 2.90625 0.75q1.59375 0 2.90625 -0.75q1.328125 -0.765625 2.109375 -2.15625q0.78125 -1.40625 0.78125 -3.015625q0 -2.5 -1.71875 -4.265625q-1.703125 -1.765625 -4.078125 -1.765625zm11.302734 -1.484375l1.90625 0l0 2.671875q1.15625 -1.53125 2.546875 -2.296875q1.390625 -0.765625 3.03125 -0.765625q1.671875 0 2.953125 0.859375q1.296875 0.84375 1.90625 2.28125q0.625 1.4375 0.625 4.46875l0 7.65625l-1.90625 0l0 -7.09375q0 -2.578125 -0.21875 -3.4375q-0.34375 -1.46875 -1.28125 -2.21875q-0.9375 -0.75 -2.453125 -0.75q-1.75 0 -3.125 1.15625q-1.359375 1.140625 -1.796875 2.84375q-0.28125 1.109375 -0.28125 4.046875l0 5.453125l-1.90625 0l0 -14.875zm24.21875 14.875l2.859375 -20.109375l0.328125 0l8.171875 16.5l8.09375 -16.5l0.328125 0l2.890625 20.109375l-1.984375 0l-1.96875 -14.390625l-7.109375 14.390625l-0.5 0l-7.21875 -14.5l-1.953125 14.5l-1.9375 0zm41.152344 -14.875l0 14.875l-1.890625 0l0 -2.5625q-1.203125 1.46875 -2.703125 2.21875q-1.484375 0.734375 -3.265625 0.734375q-3.15625 0 -5.390625 -2.296875q-2.234375 -2.296875 -2.234375 -5.578125q0 -3.203125 2.25 -5.484375q2.25 -2.296875 5.421875 -2.296875q1.84375 0 3.328125 0.78125q1.484375 0.78125 2.59375 2.34375l0 -2.734375l1.890625 0zm-7.65625 1.46875q-1.59375 0 -2.953125 0.78125q-1.359375 0.78125 -2.15625 2.203125q-0.796875 1.421875 -0.796875 3.015625q0 1.5625 0.796875 3.0q0.8125 1.4375 2.171875 2.234375q1.359375 0.796875 2.921875 0.796875q1.578125 0 2.984375 -0.78125q1.40625 -0.796875 2.15625 -2.140625q0.765625 -1.359375 0.765625 -3.0625q0 -2.578125 -1.703125 -4.3125q-1.703125 -1.734375 -4.1875 -1.734375zm11.970703 -1.46875l1.90625 0l0 2.671875q1.15625 -1.53125 2.546875 -2.296875q1.390625 -0.765625 3.03125 -0.765625q1.671875 0 2.953125 0.859375q1.296875 0.84375 1.90625 2.28125q0.625 1.4375 0.625 4.46875l0 7.65625l-1.90625 0l0 -7.09375q0 -2.578125 -0.21875 -3.4375q-0.34375 -1.46875 -1.28125 -2.21875q-0.9375 -0.75 -2.453125 -0.75q-1.75 0 -3.125 1.15625q-1.359375 1.140625 -1.796875 2.84375q-0.28125 1.109375 -0.28125 4.046875l0 5.453125l-1.90625 0l0 -14.875zm31.888672 0l0 14.875l-1.890625 0l0 -2.5625q-1.203125 1.46875 -2.703125 2.21875q-1.484375 0.734375 -3.265625 0.734375q-3.15625 0 -5.390625 -2.296875q-2.234375 -2.296875 -2.234375 -5.578125q0 -3.203125 2.25 -5.484375q2.25 -2.296875 5.421875 -2.296875q1.84375 0 3.328125 0.78125q1.484375 0.78125 2.59375 2.34375l0 -2.734375l1.890625 0zm-7.65625 1.46875q-1.59375 0 -2.953125 0.78125q-1.359375 0.78125 -2.15625 2.203125q-0.796875 1.421875 -0.796875 3.015625q0 1.5625 0.796875 3.0q0.8125 1.4375 2.171875 2.234375q1.359375 0.796875 2.921875 0.796875q1.578125 0 2.984375 -0.78125q1.40625 -0.796875 2.15625 -2.140625q0.765625 -1.359375 0.765625 -3.0625q0 -2.578125 -1.703125 -4.3125q-1.703125 -1.734375 -4.1875 -1.734375zm24.767578 -1.46875l1.9375 0l0 11.859375q0 3.125 -0.546875 4.578125q-0.75 2.046875 -2.609375 3.15625q-1.859375 1.109375 -4.46875 1.109375q-1.921875 0 -3.453125 -0.546875q-1.515625 -0.53125 -2.484375 -1.453125q-0.953125 -0.90625 -1.75 -2.65625l2.078125 0q0.84375 1.484375 2.1875 2.1875q1.34375 0.71875 3.3125 0.71875q1.96875 0 3.3125 -0.734375q1.34375 -0.734375 1.90625 -1.84375q0.578125 -1.109375 0.578125 -3.5625l0 -0.765625q-1.078125 1.359375 -2.640625 2.09375q-1.546875 0.734375 -3.296875 0.734375q-2.046875 0 -3.859375 -1.015625q-1.796875 -1.015625 -2.78125 -2.734375q-0.984375 -1.734375 -0.984375 -3.796875q0 -2.0625 1.015625 -3.84375q1.03125 -1.796875 2.84375 -2.828125q1.8125 -1.046875 3.8125 -1.046875q1.671875 0 3.109375 0.703125q1.453125 0.6875 2.78125 2.265625l0 -2.578125zm-5.640625 1.46875q-1.625 0 -3.03125 0.78125q-1.390625 0.78125 -2.1875 2.171875q-0.78125 1.390625 -0.78125 3.0q0 2.453125 1.640625 4.046875q1.640625 1.59375 4.25 1.59375q2.640625 0 4.25 -1.578125q1.609375 -1.59375 1.609375 -4.171875q0 -1.6875 -0.75 -3.0q-0.734375 -1.3125 -2.09375 -2.078125q-1.34375 -0.765625 -2.90625 -0.765625zm24.199219 8.46875l1.609375 0.84375q-0.78125 1.5625 -1.828125 2.53125q-1.03125 0.953125 -2.34375 1.453125q-1.296875 0.5 -2.9375 0.5q-3.625 0 -5.6875 -2.390625q-2.046875 -2.390625 -2.046875 -5.390625q0 -2.84375 1.734375 -5.046875q2.203125 -2.828125 5.890625 -2.828125q3.8125 0 6.078125 2.890625q1.609375 2.03125 1.640625 5.09375l-13.375 0q0.0625 2.59375 1.65625 4.25q1.59375 1.65625 3.953125 1.65625q1.125 0 2.203125 -0.390625q1.078125 -0.390625 1.828125 -1.046875q0.75 -0.65625 1.625 -2.125zm0 -4.0q-0.375 -1.53125 -1.109375 -2.453125q-0.734375 -0.921875 -1.9375 -1.46875q-1.203125 -0.5625 -2.53125 -0.5625q-2.1875 0 -3.765625 1.40625q-1.140625 1.015625 -1.734375 3.078125l11.078125 0zm4.9472656 -5.9375l1.953125 0l0 2.171875q0.875 -1.28125 1.84375 -1.921875q0.984375 -0.640625 2.03125 -0.640625q0.796875 0 1.6875 0.515625l-0.984375 1.609375q-0.609375 -0.265625 -1.015625 -0.265625q-0.953125 0 -1.84375 0.796875q-0.890625 0.78125 -1.359375 2.4375q-0.359375 1.265625 -0.359375 5.140625l0 5.03125l-1.953125 0l0 -14.875z" fill-rule="nonzero"></path></g></svg>

