<?xml version="1.0" encoding="utf-8"?>
<!-- Generator: Adobe Illustrator 21.0.0, SVG Export Plug-In . SVG Version: 6.00 Build 0)  -->
<svg version="1.1" id="Layer_1" xmlns="http://www.w3.org/2000/svg" xmlns:xlink="http://www.w3.org/1999/xlink" x="0px" y="0px"
	 viewBox="0 0 72 72" style="enable-background:new 0 0 72 72;" xml:space="preserve">
<style type="text/css">
	.st0{fill:none;stroke:#231F20;stroke-width:2;stroke-miterlimit:10;}
	.st1{fill:none;stroke:#231F20;stroke-miterlimit:10;}
</style>
<g>
	<g>
		<polygon class="st0" points="59.3,65.8 12.9,65.8 12.9,6.2 44.1,6.2 47.3,18.2 59.3,21.4 		"/>
		<path class="st0" d="M59.3,65.8H12.8V6.2h31.2c7,0,15,8.4,15.2,15.2v44.4H59.3z"/>
	</g>
	<g>
		<path class="st0" d="M43.1,53.4h-13c0,0-3.7-17.3,0-21c2.3-2.3,10.7-2.3,13,0C46.8,36.1,43.1,53.4,43.1,53.4z"/>
		<line class="st0" x1="36.3" y1="30.4" x2="36.3" y2="28"/>
		<path class="st1" d="M38.5,25.6c0,1.2-1,2.2-2.2,2.2s-2.2-1-2.2-2.2s2.2-4.6,2.2-4.6S38.5,24.4,38.5,25.6z"/>
		<path class="st1" d="M28.5,36.8c2.2-0.2,2.4,5.8,4,5.4c1.3-0.3,0.7-4.8,2-5.2c0.9-0.3,2.7,1.7,3.6,1.4s1.9-2.9,2.8-2.6
			c1.4,0.4,1.4,5.2,4,4"/>
	</g>
</g>
</svg>
