<?xml version="1.0" encoding="utf-8"?>
<!-- Generator: Adobe Illustrator 21.0.0, SVG Export Plug-In . SVG Version: 6.00 Build 0)  -->
<svg version="1.1" id="Layer_1" xmlns="http://www.w3.org/2000/svg" xmlns:xlink="http://www.w3.org/1999/xlink" x="0px" y="0px"
	 viewBox="0 0 72 72" style="enable-background:new 0 0 72 72;" xml:space="preserve">
<g>
	<g>
		<path d="M58.4,19.8c-8.5-3.8-36.3-3.8-44.7,0c-8,3.6-15.4,21.7-3.8,34.3c3.8,4.1,8.9-9.5,8.9-9.5l33.6,0c0,0,5.7,14.3,9.8,9.5
			C73.8,40.7,66.4,23.4,58.4,19.8z M17,31.9h-1.9v1.9c0,0.7-0.5,1.2-1.2,1.2c-0.7,0-1.2-0.5-1.2-1.2v-1.9h-1.9
			c-0.7,0-1.2-0.5-1.2-1.2s0.5-1.2,1.2-1.2h1.9v-1.9c0-0.7,0.5-1.2,1.2-1.2c0.7,0,1.2,0.5,1.2,1.2v1.9H17c0.7,0,1.2,0.5,1.2,1.2
			S17.6,31.9,17,31.9z M23.8,42c-1.8,0-3.2-1.4-3.2-3.2s1.4-3.2,3.2-3.2s3.2,1.4,3.2,3.2S25.5,42,23.8,42z M46.5,42
			c-1.8,0-3.2-1.4-3.2-3.2s1.4-3.2,3.2-3.2c1.8,0,3.2,1.4,3.2,3.2S48.2,42,46.5,42z M53.6,32.1c-0.8,0-1.4-0.6-1.4-1.4
			s0.6-1.4,1.4-1.4s1.4,0.6,1.4,1.4S54.4,32.1,53.6,32.1z M57.4,34.9c-0.8,0-1.4-0.6-1.4-1.4s0.6-1.4,1.4-1.4s1.4,0.6,1.4,1.4
			S58.2,34.9,57.4,34.9z M57.4,29.2c-0.8,0-1.4-0.6-1.4-1.4c0-0.8,0.6-1.4,1.4-1.4s1.4,0.6,1.4,1.4C58.8,28.5,58.2,29.2,57.4,29.2z
			 M61.2,32.1c-0.8,0-1.4-0.6-1.4-1.4s0.6-1.4,1.4-1.4s1.4,0.6,1.4,1.4S62,32.1,61.2,32.1z"/>
	</g>
</g>
</svg>
