<?xml version="1.0" encoding="utf-8"?>
<!-- Generator: Adobe Illustrator 21.0.0, SVG Export Plug-In . SVG Version: 6.00 Build 0)  -->
<svg version="1.1" id="Layer_1" xmlns="http://www.w3.org/2000/svg" xmlns:xlink="http://www.w3.org/1999/xlink" x="0px" y="0px"
	 viewBox="0 0 72 72" style="enable-background:new 0 0 72 72;" xml:space="preserve">
<style type="text/css">
	.st0{fill:none;stroke:#000000;stroke-width:2.511;stroke-miterlimit:10;}
</style>
<g>
	<g>
		<g>
			<g>
				<rect x="23.7" y="56.7" width="6.8" height="3.1"/>
				<rect x="43.3" y="56.7" width="6.2" height="3.1"/>
				<rect x="33" y="56.7" width="7.8" height="3.1"/>
				<circle cx="19.1" cy="42.3" r="5.3"/>
				<rect x="52" y="56.7" width="4.9" height="3.1"/>
				<path d="M5.9,21.6v44.6h60.1V21.6H5.9z M19.1,34.4c4.3,0,7.8,3.5,7.8,7.8c0,4.3-3.5,7.8-7.8,7.8c-4.3,0-7.8-3.5-7.8-7.8
					C11.3,38,14.8,34.4,19.1,34.4z M59.5,62.4h-46v-8.2h46V62.4z M53.5,50c-4.3,0-7.8-3.5-7.8-7.8c0-4.3,3.5-7.8,7.8-7.8
					c4.3,0,7.8,3.5,7.8,7.8C61.3,46.4,57.8,50,53.5,50z"/>
				<rect x="16" y="56.7" width="5.2" height="3.1"/>
				<circle cx="53.5" cy="42.1" r="5.3"/>
			</g>
		</g>
	</g>
	<circle cx="36.4" cy="24.2" r="6.5"/>
	<polyline class="st0" points="17.2,8.5 36.4,23.2 49.3,9.9 	"/>
	<circle cx="17.2" cy="8.5" r="2.6"/>
	<circle cx="49.3" cy="10.2" r="2.6"/>
</g>
</svg>
