<?xml version="1.0" encoding="utf-8"?>
<!-- Generator: Adobe Illustrator 21.0.0, SVG Export Plug-In . SVG Version: 6.00 Build 0)  -->
<svg version="1.1" id="Layer_1" xmlns="http://www.w3.org/2000/svg" xmlns:xlink="http://www.w3.org/1999/xlink" x="0px" y="0px"
	 viewBox="0 0 72 72" style="enable-background:new 0 0 72 72;" xml:space="preserve">
<style type="text/css">
	.st0{fill:none;stroke:#231F20;stroke-width:2;stroke-miterlimit:10;}
	.st1{fill:none;stroke:#000000;stroke-linecap:round;stroke-miterlimit:10;}
</style>
<g>
	<g>
		<polygon class="st0" points="59,65.5 13,65.5 13,6.5 43.9,6.5 47.1,18.4 59,21.5 		"/>
		<path class="st0" d="M59,65.5H13v-59h30.9c6.9,0,14.9,8.3,15.1,15V65.5z"/>
	</g>
	<path class="st1" d="M36.7,56.9c-0.7-1-2.3-0.4-2.8-1.4c-1.1-2.1,7,0.4,7.2-2c0.2-2.4-8.1,1.3-8.5-1.1c-0.5-2.8,8.6-0.7,8.5-3.3
		c-0.1-2-9.9,1.2-8.4-0.2c3.2-2.9,0.2-18.6-2.6-11.3c-1.4,3.8,10.1-1.8,6-1.8c-4.9,0,8.7,6.5,6.4,1.1c-3-6.8-3.8,15.3-2,10.1
		c0.9-2.5,4.4-8.6,5.4-11.5c5.3-15.4-24.7-14.7-19.7,0c1.1,3.4,6.5,8.6,6.5,12.2"/>
</g>
</svg>
