<?xml version="1.0" encoding="utf-8"?>
<!-- Generator: Adobe Illustrator 21.0.0, SVG Export Plug-In . SVG Version: 6.00 Build 0)  -->
<svg version="1.1" id="Layer_1" xmlns="http://www.w3.org/2000/svg" xmlns:xlink="http://www.w3.org/1999/xlink" x="0px" y="0px"
	 viewBox="0 0 72 72" style="enable-background:new 0 0 72 72;" xml:space="preserve">
<style type="text/css">
	.st0{fill:none;stroke:#231F20;stroke-width:2;stroke-miterlimit:10;}
	.st1{fill:none;stroke:#000000;stroke-linecap:round;stroke-miterlimit:10;}
	.st2{fill:none;stroke:#000000;stroke-width:0.75;stroke-linecap:round;stroke-miterlimit:10;}
</style>
<g>
	<g>
		<polygon class="st0" points="59.1,65.7 12.9,65.7 12.9,6.3 44,6.3 47.2,18.3 59.1,21.5 		"/>
		<path class="st0" d="M59.1,65.7H12.9V6.3H44c7,0,14.9,8.4,15.2,15.1V65.7z"/>
	</g>
	<g>
		<path class="st1" d="M38,26c-0.6,1.9-9.5,1.7-9.9,2.8c-0.3,0.9-0.2,3.1,0.6,3.6c3.1,1.6,11.1-0.8,13.9-3c1.5-1.2-0.3-5.6-1.7-6
			c-2.1-0.6-8.5-0.6-10.5,0.5c-0.7,0.4-0.8,3.2,0.6,3.4c0.7,0.1,0.6,0.2,1.8,0.4"/>
		<path class="st1" d="M29.3,32.7c-0.7,0.2-1.3-0.4-1.4-0.2c-0.7,0.6-0.7,3.1,0.2,3.9c3.1,2.8,13.8,0.9,16.6-2.2
			c0.7-0.8,0.2-3.6-0.8-4.2c-0.3-0.2-0.4,0-1.2-0.3"/>
		<path class="st1" d="M29.8,37.7c-0.7,0.1-1.2-0.5-1.3-0.4c-0.8,0.6-1,3-0.2,3.9c2.7,3.1,13.3,2.2,16.3-0.7
			c0.8-0.7,0.6-3.5-0.4-4.3c-0.3-0.3-0.4-0.1-1.1-0.4"/>
		<path class="st1" d="M33.3,43.1c-2,0.7,4.4,3.2,1.5,3c-1.8-0.1-2.9,0.4-3,0c-0.5-1.4-3.2-2.1-2.1-3.8"/>
		<path class="st1" d="M38.9,43.1c2,0.5-3.6,3.3-1.2,3.2c1.8-0.1,2.7,0.4,2.8-0.1c0.4-1.4,3.2-2.6,1.9-4.2"/>
		<path class="st2" d="M38.9,53.1v1.2c0,0.7-0.4,1.3-1,1.3h-3.1c-0.5,0-1-0.6-1-1.3v-1.2"/>
		<path class="st1" d="M30.7,46.1h11.1c0,0,1.3,6.4-5.4,6.4C29.4,52.6,30.7,46.1,30.7,46.1z"/>
	</g>
</g>
</svg>
